<mxfile host="app.diagrams.net" agent="Mozilla/5.0 (Macintosh; Intel Mac OS X 10_15_7) AppleWebKit/537.36 (KHTML, like Gecko) Chrome/129.0.0.0 Safari/537.36" version="24.8.2">
  <diagram name="Page-1" id="EfwDvr-h0QJoYLf9BSMS">
    <mxGraphModel dx="1257" dy="1747" grid="1" gridSize="10" guides="1" tooltips="1" connect="1" arrows="1" fold="1" page="1" pageScale="1" pageWidth="850" pageHeight="1100" math="0" shadow="0">
      <root>
        <mxCell id="0" />
        <mxCell id="1" parent="0" />
        <mxCell id="bO1hcC3LqvMLxOzVDt7A-1" value="" style="rounded=0;whiteSpace=wrap;html=1;" parent="1" vertex="1">
          <mxGeometry x="200" y="-30" width="430" height="270" as="geometry" />
        </mxCell>
        <mxCell id="bO1hcC3LqvMLxOzVDt7A-2" value="" style="rounded=0;whiteSpace=wrap;html=1;" parent="1" vertex="1">
          <mxGeometry x="200" y="260" width="430" height="200" as="geometry" />
        </mxCell>
        <mxCell id="bO1hcC3LqvMLxOzVDt7A-3" value="&lt;b&gt;&lt;u&gt;State&lt;/u&gt;&lt;/b&gt;&lt;div&gt;&lt;b&gt;&lt;u&gt;Manager&lt;/u&gt;&lt;/b&gt;&lt;/div&gt;" style="rounded=0;whiteSpace=wrap;html=1;" parent="1" vertex="1">
          <mxGeometry x="261" y="141.5" width="120" height="60" as="geometry" />
        </mxCell>
        <mxCell id="bO1hcC3LqvMLxOzVDt7A-4" value="effect" style="shape=process;whiteSpace=wrap;html=1;backgroundOutline=1;" parent="1" vertex="1">
          <mxGeometry x="240" y="330" width="60" height="20" as="geometry" />
        </mxCell>
        <mxCell id="bO1hcC3LqvMLxOzVDt7A-5" value="effect" style="shape=process;whiteSpace=wrap;html=1;backgroundOutline=1;" parent="1" vertex="1">
          <mxGeometry x="240" y="370" width="60" height="20" as="geometry" />
        </mxCell>
        <mxCell id="bO1hcC3LqvMLxOzVDt7A-6" value="effect" style="shape=process;whiteSpace=wrap;html=1;backgroundOutline=1;" parent="1" vertex="1">
          <mxGeometry x="240" y="410" width="60" height="20" as="geometry" />
        </mxCell>
        <mxCell id="bO1hcC3LqvMLxOzVDt7A-7" value="effect" style="shape=process;whiteSpace=wrap;html=1;backgroundOutline=1;" parent="1" vertex="1">
          <mxGeometry x="320" y="330" width="60" height="20" as="geometry" />
        </mxCell>
        <mxCell id="bO1hcC3LqvMLxOzVDt7A-8" value="effect" style="shape=process;whiteSpace=wrap;html=1;backgroundOutline=1;" parent="1" vertex="1">
          <mxGeometry x="402" y="370" width="60" height="20" as="geometry" />
        </mxCell>
        <mxCell id="bO1hcC3LqvMLxOzVDt7A-9" value="effect" style="shape=process;whiteSpace=wrap;html=1;backgroundOutline=1;" parent="1" vertex="1">
          <mxGeometry x="320" y="370" width="60" height="20" as="geometry" />
        </mxCell>
        <mxCell id="bO1hcC3LqvMLxOzVDt7A-10" value="" style="endArrow=none;html=1;rounded=0;entryX=0;entryY=0.5;entryDx=0;entryDy=0;shape=link;" parent="1" target="bO1hcC3LqvMLxOzVDt7A-4" edge="1">
          <mxGeometry width="50" height="50" relative="1" as="geometry">
            <mxPoint x="200" y="340" as="sourcePoint" />
            <mxPoint x="250" y="290" as="targetPoint" />
          </mxGeometry>
        </mxCell>
        <mxCell id="bO1hcC3LqvMLxOzVDt7A-11" value="" style="endArrow=none;html=1;rounded=0;entryX=0;entryY=0.5;entryDx=0;entryDy=0;shape=link;" parent="1" target="bO1hcC3LqvMLxOzVDt7A-7" edge="1">
          <mxGeometry width="50" height="50" relative="1" as="geometry">
            <mxPoint x="300" y="340" as="sourcePoint" />
            <mxPoint x="350" y="290" as="targetPoint" />
          </mxGeometry>
        </mxCell>
        <mxCell id="bO1hcC3LqvMLxOzVDt7A-13" value="" style="endArrow=none;html=1;rounded=0;entryX=0;entryY=0.5;entryDx=0;entryDy=0;shape=link;" parent="1" target="bO1hcC3LqvMLxOzVDt7A-5" edge="1">
          <mxGeometry width="50" height="50" relative="1" as="geometry">
            <mxPoint x="200" y="380" as="sourcePoint" />
            <mxPoint x="250" y="330" as="targetPoint" />
          </mxGeometry>
        </mxCell>
        <mxCell id="bO1hcC3LqvMLxOzVDt7A-14" value="" style="endArrow=none;html=1;rounded=0;entryX=0;entryY=0.5;entryDx=0;entryDy=0;shape=link;" parent="1" source="bO1hcC3LqvMLxOzVDt7A-22" target="bO1hcC3LqvMLxOzVDt7A-6" edge="1">
          <mxGeometry width="50" height="50" relative="1" as="geometry">
            <mxPoint x="200" y="420" as="sourcePoint" />
            <mxPoint x="250" y="370" as="targetPoint" />
          </mxGeometry>
        </mxCell>
        <mxCell id="bO1hcC3LqvMLxOzVDt7A-15" value="" style="endArrow=none;html=1;rounded=0;entryX=0;entryY=0.5;entryDx=0;entryDy=0;shape=link;" parent="1" target="bO1hcC3LqvMLxOzVDt7A-9" edge="1">
          <mxGeometry width="50" height="50" relative="1" as="geometry">
            <mxPoint x="300" y="380" as="sourcePoint" />
            <mxPoint x="350" y="330" as="targetPoint" />
          </mxGeometry>
        </mxCell>
        <mxCell id="bO1hcC3LqvMLxOzVDt7A-16" value="" style="endArrow=none;html=1;rounded=0;entryX=0;entryY=0.5;entryDx=0;entryDy=0;shape=link;" parent="1" target="bO1hcC3LqvMLxOzVDt7A-8" edge="1">
          <mxGeometry width="50" height="50" relative="1" as="geometry">
            <mxPoint x="380" y="380" as="sourcePoint" />
            <mxPoint x="430" y="330" as="targetPoint" />
          </mxGeometry>
        </mxCell>
        <mxCell id="bO1hcC3LqvMLxOzVDt7A-17" value="" style="endArrow=none;html=1;rounded=0;entryX=0;entryY=0.5;entryDx=0;entryDy=0;exitX=1;exitY=0.5;exitDx=0;exitDy=0;shape=link;" parent="1" source="bO1hcC3LqvMLxOzVDt7A-8" target="bO1hcC3LqvMLxOzVDt7A-28" edge="1">
          <mxGeometry width="50" height="50" relative="1" as="geometry">
            <mxPoint x="460" y="380" as="sourcePoint" />
            <mxPoint x="510" y="330" as="targetPoint" />
          </mxGeometry>
        </mxCell>
        <mxCell id="bO1hcC3LqvMLxOzVDt7A-18" value="" style="endArrow=none;html=1;rounded=0;entryX=0;entryY=0.5;entryDx=0;entryDy=0;exitX=1;exitY=0.5;exitDx=0;exitDy=0;shape=link;" parent="1" source="bO1hcC3LqvMLxOzVDt7A-6" target="bO1hcC3LqvMLxOzVDt7A-30" edge="1">
          <mxGeometry width="50" height="50" relative="1" as="geometry">
            <mxPoint x="530" y="430" as="sourcePoint" />
            <mxPoint x="580" y="380" as="targetPoint" />
          </mxGeometry>
        </mxCell>
        <mxCell id="bO1hcC3LqvMLxOzVDt7A-21" value="" style="rounded=0;whiteSpace=wrap;html=1;" parent="1" vertex="1">
          <mxGeometry x="190" y="330" width="20" height="20" as="geometry" />
        </mxCell>
        <mxCell id="bO1hcC3LqvMLxOzVDt7A-23" value="" style="rounded=0;whiteSpace=wrap;html=1;" parent="1" vertex="1">
          <mxGeometry x="190" y="370" width="20" height="20" as="geometry" />
        </mxCell>
        <mxCell id="bO1hcC3LqvMLxOzVDt7A-24" value="" style="endArrow=none;html=1;rounded=0;entryX=0;entryY=0.5;entryDx=0;entryDy=0;" parent="1" target="bO1hcC3LqvMLxOzVDt7A-22" edge="1">
          <mxGeometry width="50" height="50" relative="1" as="geometry">
            <mxPoint x="200" y="420" as="sourcePoint" />
            <mxPoint x="240" y="420" as="targetPoint" />
          </mxGeometry>
        </mxCell>
        <mxCell id="bO1hcC3LqvMLxOzVDt7A-22" value="" style="rounded=0;whiteSpace=wrap;html=1;" parent="1" vertex="1">
          <mxGeometry x="190" y="410" width="20" height="20" as="geometry" />
        </mxCell>
        <mxCell id="bO1hcC3LqvMLxOzVDt7A-25" value="" style="rounded=0;whiteSpace=wrap;html=1;" parent="1" vertex="1">
          <mxGeometry x="619.5" y="330" width="20" height="20" as="geometry" />
        </mxCell>
        <mxCell id="bO1hcC3LqvMLxOzVDt7A-28" value="" style="rounded=0;whiteSpace=wrap;html=1;" parent="1" vertex="1">
          <mxGeometry x="619.5" y="370" width="20" height="20" as="geometry" />
        </mxCell>
        <mxCell id="bO1hcC3LqvMLxOzVDt7A-30" value="" style="rounded=0;whiteSpace=wrap;html=1;" parent="1" vertex="1">
          <mxGeometry x="619.5" y="410" width="20" height="20" as="geometry" />
        </mxCell>
        <mxCell id="bO1hcC3LqvMLxOzVDt7A-31" value="" style="endArrow=none;html=1;rounded=0;entryX=0;entryY=0.5;entryDx=0;entryDy=0;exitX=1;exitY=0.5;exitDx=0;exitDy=0;shape=link;" parent="1" source="bO1hcC3LqvMLxOzVDt7A-7" target="bO1hcC3LqvMLxOzVDt7A-25" edge="1">
          <mxGeometry width="50" height="50" relative="1" as="geometry">
            <mxPoint x="425" y="339.7" as="sourcePoint" />
            <mxPoint x="603" y="339.7" as="targetPoint" />
          </mxGeometry>
        </mxCell>
        <mxCell id="bO1hcC3LqvMLxOzVDt7A-32" value="" style="shape=flexArrow;endArrow=classic;html=1;rounded=0;endWidth=36.78004535147392;endSize=9.347619047619046;width=64.76190476190476;" parent="1" edge="1">
          <mxGeometry width="50" height="50" relative="1" as="geometry">
            <mxPoint x="130" y="380" as="sourcePoint" />
            <mxPoint x="180" y="379.76" as="targetPoint" />
          </mxGeometry>
        </mxCell>
        <mxCell id="bO1hcC3LqvMLxOzVDt7A-35" value="Audio&lt;br&gt;in" style="edgeLabel;html=1;align=center;verticalAlign=middle;resizable=0;points=[];" parent="bO1hcC3LqvMLxOzVDt7A-32" vertex="1" connectable="0">
          <mxGeometry x="0.0242" y="7" relative="1" as="geometry">
            <mxPoint x="-6" y="7" as="offset" />
          </mxGeometry>
        </mxCell>
        <mxCell id="bO1hcC3LqvMLxOzVDt7A-33" value="" style="shape=flexArrow;endArrow=classic;html=1;rounded=0;endWidth=36.78004535147392;endSize=9.347619047619046;width=64.76190476190476;" parent="1" edge="1">
          <mxGeometry width="50" height="50" relative="1" as="geometry">
            <mxPoint x="649.5" y="379.84" as="sourcePoint" />
            <mxPoint x="699.5" y="379.59999999999997" as="targetPoint" />
          </mxGeometry>
        </mxCell>
        <mxCell id="bO1hcC3LqvMLxOzVDt7A-36" value="Audio&lt;div&gt;out&lt;/div&gt;" style="edgeLabel;html=1;align=center;verticalAlign=middle;resizable=0;points=[];" parent="bO1hcC3LqvMLxOzVDt7A-33" vertex="1" connectable="0">
          <mxGeometry x="-0.4891" y="12" relative="1" as="geometry">
            <mxPoint x="7" y="12" as="offset" />
          </mxGeometry>
        </mxCell>
        <mxCell id="bO1hcC3LqvMLxOzVDt7A-34" value="USB" style="rounded=0;whiteSpace=wrap;html=1;" parent="1" vertex="1">
          <mxGeometry x="390" y="450" width="60" height="20" as="geometry" />
        </mxCell>
        <mxCell id="bO1hcC3LqvMLxOzVDt7A-39" value="&lt;b&gt;&lt;u&gt;Audio&lt;/u&gt;&lt;/b&gt;&lt;div&gt;&lt;b&gt;&lt;u&gt;Manager&lt;/u&gt;&lt;/b&gt;&lt;/div&gt;" style="rounded=0;whiteSpace=wrap;html=1;" parent="1" vertex="1">
          <mxGeometry x="450" y="140" width="120" height="60" as="geometry" />
        </mxCell>
        <mxCell id="bO1hcC3LqvMLxOzVDt7A-40" value="WiFi" style="rounded=0;whiteSpace=wrap;html=1;" parent="1" vertex="1">
          <mxGeometry x="180" y="70" width="40" height="60" as="geometry" />
        </mxCell>
        <mxCell id="bO1hcC3LqvMLxOzVDt7A-41" value="&lt;b&gt;&lt;u&gt;Mobile&lt;br&gt;Interface&lt;/u&gt;&lt;/b&gt;" style="rounded=0;whiteSpace=wrap;html=1;" parent="1" vertex="1">
          <mxGeometry x="60" y="70" width="120" height="60" as="geometry" />
        </mxCell>
        <mxCell id="bO1hcC3LqvMLxOzVDt7A-42" value="&lt;b&gt;&lt;u&gt;Onboard&lt;br&gt;Interface&lt;/u&gt;&lt;/b&gt;" style="rounded=0;whiteSpace=wrap;html=1;" parent="1" vertex="1">
          <mxGeometry x="260" width="120" height="60" as="geometry" />
        </mxCell>
        <mxCell id="bO1hcC3LqvMLxOzVDt7A-44" value="&lt;b&gt;&lt;u&gt;DSP&lt;br&gt;Manager&lt;/u&gt;&lt;/b&gt;" style="rounded=0;whiteSpace=wrap;html=1;" parent="1" vertex="1">
          <mxGeometry x="450" y="270" width="120" height="60" as="geometry" />
        </mxCell>
        <mxCell id="bO1hcC3LqvMLxOzVDt7A-46" value="" style="endArrow=none;dashed=1;html=1;dashPattern=1 3;strokeWidth=2;rounded=0;entryX=0.25;entryY=1;entryDx=0;entryDy=0;exitX=0.5;exitY=0;exitDx=0;exitDy=0;" parent="1" source="bO1hcC3LqvMLxOzVDt7A-8" target="bO1hcC3LqvMLxOzVDt7A-44" edge="1">
          <mxGeometry width="50" height="50" relative="1" as="geometry">
            <mxPoint x="430" y="370" as="sourcePoint" />
            <mxPoint x="480" y="320" as="targetPoint" />
          </mxGeometry>
        </mxCell>
        <mxCell id="bO1hcC3LqvMLxOzVDt7A-49" value="SPI" style="rounded=0;whiteSpace=wrap;html=1;" parent="1" vertex="1">
          <mxGeometry x="310" y="230" width="40" height="40" as="geometry" />
        </mxCell>
        <mxCell id="bO1hcC3LqvMLxOzVDt7A-52" value="" style="endArrow=none;html=1;rounded=0;exitX=0.5;exitY=0;exitDx=0;exitDy=0;" parent="1" source="bO1hcC3LqvMLxOzVDt7A-34" edge="1">
          <mxGeometry width="50" height="50" relative="1" as="geometry">
            <mxPoint x="460" y="380" as="sourcePoint" />
            <mxPoint x="510" y="330" as="targetPoint" />
            <Array as="points">
              <mxPoint x="420" y="440" />
              <mxPoint x="510" y="440" />
            </Array>
          </mxGeometry>
        </mxCell>
        <mxCell id="bO1hcC3LqvMLxOzVDt7A-55" value="" style="endArrow=none;dashed=1;html=1;rounded=0;exitX=0.25;exitY=0;exitDx=0;exitDy=0;entryX=1;entryY=0.5;entryDx=0;entryDy=0;" parent="1" source="bO1hcC3LqvMLxOzVDt7A-49" target="bO1hcC3LqvMLxOzVDt7A-63" edge="1">
          <mxGeometry width="50" height="50" relative="1" as="geometry">
            <mxPoint x="270" y="270" as="sourcePoint" />
            <mxPoint x="320" y="220" as="targetPoint" />
          </mxGeometry>
        </mxCell>
        <mxCell id="bO1hcC3LqvMLxOzVDt7A-56" value="" style="endArrow=none;dashed=1;html=1;rounded=0;exitX=0;exitY=0.5;exitDx=0;exitDy=0;" parent="1" source="bO1hcC3LqvMLxOzVDt7A-61" edge="1">
          <mxGeometry width="50" height="50" relative="1" as="geometry">
            <mxPoint x="270" y="320" as="sourcePoint" />
            <mxPoint x="320" y="270" as="targetPoint" />
            <Array as="points">
              <mxPoint x="320" y="315" />
            </Array>
          </mxGeometry>
        </mxCell>
        <mxCell id="bO1hcC3LqvMLxOzVDt7A-57" value="" style="endArrow=none;html=1;rounded=0;exitX=0;exitY=0.25;exitDx=0;exitDy=0;" parent="1" source="bO1hcC3LqvMLxOzVDt7A-44" edge="1">
          <mxGeometry width="50" height="50" relative="1" as="geometry">
            <mxPoint x="290" y="320" as="sourcePoint" />
            <mxPoint x="340" y="270" as="targetPoint" />
            <Array as="points">
              <mxPoint x="340" y="285" />
            </Array>
          </mxGeometry>
        </mxCell>
        <mxCell id="bO1hcC3LqvMLxOzVDt7A-61" value="" style="triangle;whiteSpace=wrap;html=1;rotation=0;" parent="1" vertex="1">
          <mxGeometry x="440" y="310" width="10" height="12.5" as="geometry" />
        </mxCell>
        <mxCell id="bO1hcC3LqvMLxOzVDt7A-63" value="" style="triangle;whiteSpace=wrap;html=1;rotation=90;" parent="1" vertex="1">
          <mxGeometry x="315.38" y="199.12" width="9.25" height="12.5" as="geometry" />
        </mxCell>
        <mxCell id="bO1hcC3LqvMLxOzVDt7A-64" value="" style="triangle;whiteSpace=wrap;html=1;rotation=-90;" parent="1" vertex="1">
          <mxGeometry x="505.12" y="199.37" width="9.75" height="12.5" as="geometry" />
        </mxCell>
        <mxCell id="bO1hcC3LqvMLxOzVDt7A-65" value="" style="endArrow=none;html=1;rounded=0;entryX=0;entryY=0.5;entryDx=0;entryDy=0;exitX=0.75;exitY=0;exitDx=0;exitDy=0;" parent="1" source="bO1hcC3LqvMLxOzVDt7A-49" target="bO1hcC3LqvMLxOzVDt7A-64" edge="1">
          <mxGeometry width="50" height="50" relative="1" as="geometry">
            <mxPoint x="390" y="230" as="sourcePoint" />
            <mxPoint x="440" y="180" as="targetPoint" />
            <Array as="points">
              <mxPoint x="340" y="220" />
              <mxPoint x="510" y="220" />
            </Array>
          </mxGeometry>
        </mxCell>
        <mxCell id="bO1hcC3LqvMLxOzVDt7A-67" value="" style="triangle;whiteSpace=wrap;html=1;rotation=-90;" parent="1" vertex="1">
          <mxGeometry x="307.5" y="59.25" width="9.5" height="12.5" as="geometry" />
        </mxCell>
        <mxCell id="bO1hcC3LqvMLxOzVDt7A-71" value="" style="triangle;whiteSpace=wrap;html=1;rotation=90;" parent="1" vertex="1">
          <mxGeometry x="288.5" y="59.25" width="9.5" height="12.5" as="geometry" />
        </mxCell>
        <mxCell id="bO1hcC3LqvMLxOzVDt7A-72" value="" style="triangle;whiteSpace=wrap;html=1;rotation=-90;" parent="1" vertex="1">
          <mxGeometry x="343" y="59.25" width="9.5" height="12.5" as="geometry" />
        </mxCell>
        <mxCell id="bO1hcC3LqvMLxOzVDt7A-73" value="&lt;b&gt;&lt;u&gt;Auto-Mixing&lt;/u&gt;&lt;/b&gt;&lt;div&gt;&lt;b&gt;&lt;u&gt;Model&lt;/u&gt;&lt;/b&gt;&lt;/div&gt;" style="rounded=0;whiteSpace=wrap;html=1;" parent="1" vertex="1">
          <mxGeometry x="449.99" width="120" height="60" as="geometry" />
        </mxCell>
        <mxCell id="bO1hcC3LqvMLxOzVDt7A-74" value="" style="triangle;whiteSpace=wrap;html=1;rotation=-90;" parent="1" vertex="1">
          <mxGeometry x="529.99" y="59.25" width="9.5" height="12.5" as="geometry" />
        </mxCell>
        <mxCell id="bO1hcC3LqvMLxOzVDt7A-75" value="" style="triangle;whiteSpace=wrap;html=1;rotation=90;" parent="1" vertex="1">
          <mxGeometry x="479.99" y="59.25" width="9.5" height="12.5" as="geometry" />
        </mxCell>
        <mxCell id="bO1hcC3LqvMLxOzVDt7A-77" value="" style="triangle;whiteSpace=wrap;html=1;rotation=-180;" parent="1" vertex="1">
          <mxGeometry x="440" y="279" width="10" height="12.5" as="geometry" />
        </mxCell>
        <mxCell id="bO1hcC3LqvMLxOzVDt7A-81" value="" style="triangle;whiteSpace=wrap;html=1;rotation=0;" parent="1" vertex="1">
          <mxGeometry x="220" y="108.75" width="10" height="12.5" as="geometry" />
        </mxCell>
        <mxCell id="bO1hcC3LqvMLxOzVDt7A-82" value="" style="triangle;whiteSpace=wrap;html=1;rotation=-180;" parent="1" vertex="1">
          <mxGeometry x="221" y="78" width="10" height="12.5" as="geometry" />
        </mxCell>
        <mxCell id="bO1hcC3LqvMLxOzVDt7A-83" value="" style="triangle;whiteSpace=wrap;html=1;rotation=-180;" parent="1" vertex="1">
          <mxGeometry x="221" y="93.75" width="10" height="12.5" as="geometry" />
        </mxCell>
        <mxCell id="bO1hcC3LqvMLxOzVDt7A-84" value="" style="endArrow=none;dashed=1;html=1;rounded=0;" parent="1" edge="1">
          <mxGeometry width="50" height="50" relative="1" as="geometry">
            <mxPoint x="244" y="108" as="sourcePoint" />
            <mxPoint x="483" y="108" as="targetPoint" />
          </mxGeometry>
        </mxCell>
        <mxCell id="bO1hcC3LqvMLxOzVDt7A-85" value="" style="triangle;whiteSpace=wrap;html=1;rotation=-90;" parent="1" vertex="1">
          <mxGeometry x="334.25" y="129" width="9.5" height="12.5" as="geometry" />
        </mxCell>
        <mxCell id="bO1hcC3LqvMLxOzVDt7A-86" value="" style="triangle;whiteSpace=wrap;html=1;rotation=90;" parent="1" vertex="1">
          <mxGeometry x="298" y="129" width="9.5" height="12.5" as="geometry" />
        </mxCell>
        <mxCell id="bO1hcC3LqvMLxOzVDt7A-87" value="" style="triangle;whiteSpace=wrap;html=1;rotation=-90;" parent="1" vertex="1">
          <mxGeometry x="505.37" y="129" width="9.5" height="12.5" as="geometry" />
        </mxCell>
        <mxCell id="bO1hcC3LqvMLxOzVDt7A-88" value="" style="endArrow=none;html=1;rounded=0;exitX=0;exitY=0.5;exitDx=0;exitDy=0;entryX=0;entryY=0.5;entryDx=0;entryDy=0;" parent="1" source="bO1hcC3LqvMLxOzVDt7A-82" target="bO1hcC3LqvMLxOzVDt7A-74" edge="1">
          <mxGeometry width="50" height="50" relative="1" as="geometry">
            <mxPoint x="240" y="90" as="sourcePoint" />
            <mxPoint x="290" y="40" as="targetPoint" />
            <Array as="points">
              <mxPoint x="535" y="84" />
            </Array>
          </mxGeometry>
        </mxCell>
        <mxCell id="bO1hcC3LqvMLxOzVDt7A-90" value="" style="endArrow=none;html=1;rounded=0;exitX=1;exitY=0.5;exitDx=0;exitDy=0;" parent="1" source="bO1hcC3LqvMLxOzVDt7A-87" edge="1">
          <mxGeometry width="50" height="50" relative="1" as="geometry">
            <mxPoint x="550" y="120" as="sourcePoint" />
            <mxPoint x="510" y="84" as="targetPoint" />
          </mxGeometry>
        </mxCell>
        <mxCell id="bO1hcC3LqvMLxOzVDt7A-91" value="" style="endArrow=none;html=1;rounded=0;entryX=0;entryY=0.5;entryDx=0;entryDy=0;" parent="1" target="bO1hcC3LqvMLxOzVDt7A-72" edge="1">
          <mxGeometry width="50" height="50" relative="1" as="geometry">
            <mxPoint x="348" y="84" as="sourcePoint" />
            <mxPoint x="350" y="70" as="targetPoint" />
          </mxGeometry>
        </mxCell>
        <mxCell id="bO1hcC3LqvMLxOzVDt7A-92" value="" style="endArrow=none;dashed=1;html=1;rounded=0;entryX=1;entryY=0.5;entryDx=0;entryDy=0;" parent="1" target="bO1hcC3LqvMLxOzVDt7A-75" edge="1">
          <mxGeometry width="50" height="50" relative="1" as="geometry">
            <mxPoint x="485" y="108" as="sourcePoint" />
            <mxPoint x="490" y="70" as="targetPoint" />
          </mxGeometry>
        </mxCell>
        <mxCell id="bO1hcC3LqvMLxOzVDt7A-94" value="" style="endArrow=none;dashed=1;html=1;rounded=0;exitX=0;exitY=0.5;exitDx=0;exitDy=0;" parent="1" source="bO1hcC3LqvMLxOzVDt7A-86" edge="1">
          <mxGeometry width="50" height="50" relative="1" as="geometry">
            <mxPoint x="260" y="160" as="sourcePoint" />
            <mxPoint x="303" y="108" as="targetPoint" />
          </mxGeometry>
        </mxCell>
        <mxCell id="bO1hcC3LqvMLxOzVDt7A-95" value="" style="endArrow=none;dashed=1;html=1;rounded=0;exitX=1;exitY=0.5;exitDx=0;exitDy=0;" parent="1" source="bO1hcC3LqvMLxOzVDt7A-85" edge="1">
          <mxGeometry width="50" height="50" relative="1" as="geometry">
            <mxPoint x="360" y="130" as="sourcePoint" />
            <mxPoint x="339" y="109" as="targetPoint" />
          </mxGeometry>
        </mxCell>
        <mxCell id="bO1hcC3LqvMLxOzVDt7A-96" value="" style="endArrow=none;dashed=1;html=1;rounded=0;exitX=0;exitY=0.5;exitDx=0;exitDy=0;" parent="1" source="bO1hcC3LqvMLxOzVDt7A-83" edge="1">
          <mxGeometry width="50" height="50" relative="1" as="geometry">
            <mxPoint x="250" y="130" as="sourcePoint" />
            <mxPoint x="244" y="100" as="targetPoint" />
          </mxGeometry>
        </mxCell>
        <mxCell id="bO1hcC3LqvMLxOzVDt7A-97" value="" style="endArrow=none;dashed=1;html=1;rounded=0;exitX=1;exitY=0.5;exitDx=0;exitDy=0;" parent="1" source="bO1hcC3LqvMLxOzVDt7A-81" edge="1">
          <mxGeometry width="50" height="50" relative="1" as="geometry">
            <mxPoint x="250" y="150" as="sourcePoint" />
            <mxPoint x="243" y="115" as="targetPoint" />
          </mxGeometry>
        </mxCell>
        <mxCell id="bO1hcC3LqvMLxOzVDt7A-98" value="" style="endArrow=none;dashed=1;html=1;rounded=0;" parent="1" edge="1">
          <mxGeometry width="50" height="50" relative="1" as="geometry">
            <mxPoint x="244" y="100" as="sourcePoint" />
            <mxPoint x="244" y="115" as="targetPoint" />
          </mxGeometry>
        </mxCell>
        <mxCell id="bO1hcC3LqvMLxOzVDt7A-99" value="" style="endArrow=none;dashed=1;html=1;rounded=0;" parent="1" edge="1">
          <mxGeometry width="50" height="50" relative="1" as="geometry">
            <mxPoint x="293" y="107" as="sourcePoint" />
            <mxPoint x="293" y="71" as="targetPoint" />
          </mxGeometry>
        </mxCell>
        <mxCell id="bO1hcC3LqvMLxOzVDt7A-100" value="" style="endArrow=none;dashed=1;html=1;rounded=0;entryX=0;entryY=0.5;entryDx=0;entryDy=0;" parent="1" target="bO1hcC3LqvMLxOzVDt7A-67" edge="1">
          <mxGeometry width="50" height="50" relative="1" as="geometry">
            <mxPoint x="312" y="108" as="sourcePoint" />
            <mxPoint x="350" y="90" as="targetPoint" />
          </mxGeometry>
        </mxCell>
        <mxCell id="bO1hcC3LqvMLxOzVDt7A-101" value="" style="rounded=0;whiteSpace=wrap;html=1;" parent="1" vertex="1">
          <mxGeometry x="650" y="-30" width="150" height="240" as="geometry" />
        </mxCell>
        <mxCell id="bO1hcC3LqvMLxOzVDt7A-104" value="&lt;b&gt;Raspberry Pi 5&lt;/b&gt;" style="text;html=1;align=center;verticalAlign=middle;whiteSpace=wrap;rounded=0;" parent="1" vertex="1">
          <mxGeometry x="180.63" y="-30" width="144" height="30" as="geometry" />
        </mxCell>
        <mxCell id="bO1hcC3LqvMLxOzVDt7A-105" value="&lt;b&gt;XMOS XCore&lt;/b&gt;" style="text;html=1;align=center;verticalAlign=middle;whiteSpace=wrap;rounded=0;" parent="1" vertex="1">
          <mxGeometry x="178" y="260" width="139" height="30" as="geometry" />
        </mxCell>
        <mxCell id="bO1hcC3LqvMLxOzVDt7A-106" value="&lt;h1 style=&quot;margin-top: 0px;&quot;&gt;Legend&lt;/h1&gt;" style="text;html=1;whiteSpace=wrap;overflow=hidden;rounded=0;" parent="1" vertex="1">
          <mxGeometry x="660" y="-29.5" width="180" height="120" as="geometry" />
        </mxCell>
        <mxCell id="bO1hcC3LqvMLxOzVDt7A-107" value="" style="endArrow=none;dashed=1;html=1;rounded=0;" parent="1" edge="1">
          <mxGeometry width="50" height="50" relative="1" as="geometry">
            <mxPoint x="666" y="31" as="sourcePoint" />
            <mxPoint x="701" y="31" as="targetPoint" />
          </mxGeometry>
        </mxCell>
        <mxCell id="bO1hcC3LqvMLxOzVDt7A-108" value="State data&lt;br&gt;connection" style="text;strokeColor=none;fillColor=none;align=left;verticalAlign=middle;spacingLeft=4;spacingRight=4;overflow=hidden;points=[[0,0.5],[1,0.5]];portConstraint=eastwest;rotatable=0;whiteSpace=wrap;html=1;" parent="1" vertex="1">
          <mxGeometry x="710" y="15" width="80" height="30" as="geometry" />
        </mxCell>
        <mxCell id="bO1hcC3LqvMLxOzVDt7A-109" value="" style="endArrow=none;html=1;rounded=0;" parent="1" edge="1">
          <mxGeometry width="50" height="50" relative="1" as="geometry">
            <mxPoint x="667" y="76" as="sourcePoint" />
            <mxPoint x="700" y="76" as="targetPoint" />
          </mxGeometry>
        </mxCell>
        <mxCell id="bO1hcC3LqvMLxOzVDt7A-110" value="Audio data&lt;br&gt;connection" style="text;strokeColor=none;fillColor=none;align=left;verticalAlign=middle;spacingLeft=4;spacingRight=4;overflow=hidden;points=[[0,0.5],[1,0.5]];portConstraint=eastwest;rotatable=0;whiteSpace=wrap;html=1;" parent="1" vertex="1">
          <mxGeometry x="710" y="60" width="80" height="30" as="geometry" />
        </mxCell>
        <mxCell id="bO1hcC3LqvMLxOzVDt7A-113" value="&lt;b&gt;&lt;u&gt;System&lt;/u&gt;&lt;/b&gt;&lt;div&gt;&lt;b&gt;&lt;u&gt;module&lt;/u&gt;&lt;/b&gt;&lt;/div&gt;" style="rounded=0;whiteSpace=wrap;html=1;" parent="1" vertex="1">
          <mxGeometry x="665" y="105" width="120" height="45" as="geometry" />
        </mxCell>
        <mxCell id="bO1hcC3LqvMLxOzVDt7A-115" value="" style="triangle;whiteSpace=wrap;html=1;rotation=-90;" parent="1" vertex="1">
          <mxGeometry x="670" y="172" width="9.5" height="12.5" as="geometry" />
        </mxCell>
        <mxCell id="bO1hcC3LqvMLxOzVDt7A-116" value="" style="triangle;whiteSpace=wrap;html=1;rotation=91;" parent="1" vertex="1">
          <mxGeometry x="687" y="172" width="9.5" height="12.5" as="geometry" />
        </mxCell>
        <mxCell id="bO1hcC3LqvMLxOzVDt7A-118" value="Module input/output" style="text;strokeColor=none;fillColor=none;align=left;verticalAlign=middle;spacingLeft=4;spacingRight=4;overflow=hidden;points=[[0,0.5],[1,0.5]];portConstraint=eastwest;rotatable=0;whiteSpace=wrap;html=1;" parent="1" vertex="1">
          <mxGeometry x="710" y="156.5" width="80" height="43.5" as="geometry" />
        </mxCell>
        <mxCell id="bO1hcC3LqvMLxOzVDt7A-119" value="" style="ellipse;whiteSpace=wrap;html=1;aspect=fixed;strokeColor=#FF0000;fillColor=#FF0808;" parent="1" vertex="1">
          <mxGeometry x="66" y="76" width="20" height="20" as="geometry" />
        </mxCell>
        <mxCell id="bO1hcC3LqvMLxOzVDt7A-120" value="" style="ellipse;whiteSpace=wrap;html=1;aspect=fixed;strokeColor=#FF0000;fillColor=#FF0808;" parent="1" vertex="1">
          <mxGeometry x="266" y="6" width="20" height="20" as="geometry" />
        </mxCell>
        <mxCell id="bO1hcC3LqvMLxOzVDt7A-122" value="" style="ellipse;whiteSpace=wrap;html=1;aspect=fixed;strokeColor=#FF0000;fillColor=#FF0808;" parent="1" vertex="1">
          <mxGeometry x="266" y="147" width="20" height="20" as="geometry" />
        </mxCell>
        <mxCell id="bO1hcC3LqvMLxOzVDt7A-123" value="" style="ellipse;whiteSpace=wrap;html=1;aspect=fixed;strokeColor=#050DFF;fillColor=#0B03FF;" parent="1" vertex="1">
          <mxGeometry x="455" y="144" width="20" height="20" as="geometry" />
        </mxCell>
        <mxCell id="bO1hcC3LqvMLxOzVDt7A-124" value="" style="ellipse;whiteSpace=wrap;html=1;aspect=fixed;strokeColor=#09FF00;fillColor=#00FF1A;" parent="1" vertex="1">
          <mxGeometry x="455" y="5" width="20" height="20" as="geometry" />
        </mxCell>
        <mxCell id="bO1hcC3LqvMLxOzVDt7A-125" value="" style="ellipse;whiteSpace=wrap;html=1;aspect=fixed;strokeColor=#F7FF00;fillColor=#E6FF03;" parent="1" vertex="1">
          <mxGeometry x="455" y="274" width="20" height="20" as="geometry" />
        </mxCell>
        <mxCell id="2rKTPZ6Cr9pdh6A0BGRH-1" value="" style="rounded=0;whiteSpace=wrap;html=1;" vertex="1" parent="1">
          <mxGeometry x="28.63" y="150" width="149.37" height="160" as="geometry" />
        </mxCell>
        <mxCell id="2rKTPZ6Cr9pdh6A0BGRH-2" value="&lt;h1 style=&quot;margin-top: 0px;&quot;&gt;&lt;font style=&quot;font-size: 14px;&quot;&gt;Work Distribution&lt;br&gt;&lt;/font&gt;&lt;br&gt;&lt;/h1&gt;" style="text;html=1;whiteSpace=wrap;overflow=hidden;rounded=0;" vertex="1" parent="1">
          <mxGeometry x="39.99999999999999" y="143.25" width="150" height="70" as="geometry" />
        </mxCell>
        <mxCell id="2rKTPZ6Cr9pdh6A0BGRH-3" value="" style="ellipse;whiteSpace=wrap;html=1;aspect=fixed;fillColor=#EEFF03;" vertex="1" parent="1">
          <mxGeometry x="56.26" y="190.5" width="18" height="18" as="geometry" />
        </mxCell>
        <mxCell id="2rKTPZ6Cr9pdh6A0BGRH-4" value="" style="ellipse;whiteSpace=wrap;html=1;aspect=fixed;fillColor=#0000FF;" vertex="1" parent="1">
          <mxGeometry x="56.26" y="220" width="18" height="18" as="geometry" />
        </mxCell>
        <mxCell id="2rKTPZ6Cr9pdh6A0BGRH-5" value="" style="ellipse;whiteSpace=wrap;html=1;aspect=fixed;fillColor=#FF0800;" vertex="1" parent="1">
          <mxGeometry x="56.26" y="250" width="18" height="18" as="geometry" />
        </mxCell>
        <mxCell id="2rKTPZ6Cr9pdh6A0BGRH-6" value="Josh" style="text;strokeColor=none;fillColor=none;align=left;verticalAlign=middle;spacingLeft=4;spacingRight=4;overflow=hidden;points=[[0,0.5],[1,0.5]];portConstraint=eastwest;rotatable=0;whiteSpace=wrap;html=1;" vertex="1" parent="1">
          <mxGeometry x="84.25999999999999" y="184.5" width="80" height="30" as="geometry" />
        </mxCell>
        <mxCell id="2rKTPZ6Cr9pdh6A0BGRH-7" value="Sri" style="text;strokeColor=none;fillColor=none;align=left;verticalAlign=middle;spacingLeft=4;spacingRight=4;overflow=hidden;points=[[0,0.5],[1,0.5]];portConstraint=eastwest;rotatable=0;whiteSpace=wrap;html=1;" vertex="1" parent="1">
          <mxGeometry x="84.25999999999999" y="214.5" width="80" height="30" as="geometry" />
        </mxCell>
        <mxCell id="2rKTPZ6Cr9pdh6A0BGRH-8" value="Juni" style="text;strokeColor=none;fillColor=none;align=left;verticalAlign=middle;spacingLeft=4;spacingRight=4;overflow=hidden;points=[[0,0.5],[1,0.5]];portConstraint=eastwest;rotatable=0;whiteSpace=wrap;html=1;" vertex="1" parent="1">
          <mxGeometry x="84.25999999999999" y="244.5" width="80" height="30" as="geometry" />
        </mxCell>
        <mxCell id="2rKTPZ6Cr9pdh6A0BGRH-9" value="" style="ellipse;whiteSpace=wrap;html=1;aspect=fixed;fillColor=#32FF24;" vertex="1" parent="1">
          <mxGeometry x="56.26" y="278.5" width="18" height="18" as="geometry" />
        </mxCell>
        <mxCell id="2rKTPZ6Cr9pdh6A0BGRH-10" value="Kevin" style="text;strokeColor=none;fillColor=none;align=left;verticalAlign=middle;spacingLeft=4;spacingRight=4;overflow=hidden;points=[[0,0.5],[1,0.5]];portConstraint=eastwest;rotatable=0;whiteSpace=wrap;html=1;" vertex="1" parent="1">
          <mxGeometry x="84.25999999999999" y="272.5" width="80" height="30" as="geometry" />
        </mxCell>
      </root>
    </mxGraphModel>
  </diagram>
</mxfile>
